<mxfile host="Electron" modified="2023-11-22T17:29:53.940Z" agent="Mozilla/5.0 (X11; Linux x86_64) AppleWebKit/537.36 (KHTML, like Gecko) draw.io/22.1.2 Chrome/114.0.5735.289 Electron/25.9.4 Safari/537.36" etag="Gt3EaTndifgnkdoSBEl5" version="22.1.2" type="device">
  <diagram name="Page-1" id="U2EPF4f_37WxK7jrNEku">
    <mxGraphModel dx="1436" dy="1007" grid="1" gridSize="10" guides="1" tooltips="1" connect="1" arrows="1" fold="1" page="1" pageScale="1" pageWidth="827" pageHeight="1169" math="0" shadow="0">
      <root>
        <mxCell id="0" />
        <mxCell id="1" parent="0" />
        <mxCell id="OYBRQHgp1X63FzrZNqn0-1" value="&lt;font style=&quot;font-size: 16px;&quot;&gt;&lt;br&gt;&lt;/font&gt;" style="rounded=1;whiteSpace=wrap;html=1;fillColor=#dae8fc;strokeColor=#6c8ebf;align=left;arcSize=5;" vertex="1" parent="1">
          <mxGeometry x="90" y="230" width="460" height="410" as="geometry" />
        </mxCell>
        <mxCell id="OYBRQHgp1X63FzrZNqn0-2" value="&lt;font style=&quot;font-size: 16px;&quot;&gt;&lt;br&gt;&lt;/font&gt;" style="rounded=1;whiteSpace=wrap;html=1;fillColor=#b1ddf0;strokeColor=#10739e;align=left;arcSize=5;" vertex="1" parent="1">
          <mxGeometry x="100" y="370" width="440" height="260" as="geometry" />
        </mxCell>
        <mxCell id="OYBRQHgp1X63FzrZNqn0-4" value="&lt;h1&gt;Component&lt;/h1&gt;&lt;div style=&quot;font-size: 16px;&quot;&gt;&lt;font style=&quot;font-size: 16px;&quot;&gt;- Bindings&lt;/font&gt;&lt;/div&gt;&lt;div style=&quot;font-size: 16px;&quot;&gt;&lt;font style=&quot;font-size: 16px;&quot;&gt;- JSON config&lt;/font&gt;&lt;/div&gt;" style="text;html=1;strokeColor=none;fillColor=none;spacing=5;spacingTop=-20;whiteSpace=wrap;overflow=hidden;rounded=0;" vertex="1" parent="1">
          <mxGeometry x="110" y="240" width="190" height="200" as="geometry" />
        </mxCell>
        <mxCell id="OYBRQHgp1X63FzrZNqn0-5" value="&lt;h1&gt;Block&lt;/h1&gt;&lt;div style=&quot;font-size: 16px;&quot;&gt;&lt;font style=&quot;font-size: 16px;&quot;&gt;- Lifecycle&lt;/font&gt;&lt;/div&gt;&lt;div style=&quot;font-size: 16px;&quot;&gt;&lt;font style=&quot;font-size: 16px;&quot;&gt;- Introspection&lt;/font&gt;&lt;/div&gt;&lt;div style=&quot;font-size: 16px;&quot;&gt;&lt;font style=&quot;font-size: 16px;&quot;&gt;- Time&lt;/font&gt;&lt;/div&gt;&lt;div style=&quot;font-size: 16px;&quot;&gt;&lt;font style=&quot;font-size: 16px;&quot;&gt;- Clock&lt;/font&gt;&lt;/div&gt;&lt;div style=&quot;font-size: 16px;&quot;&gt;&lt;font style=&quot;font-size: 16px;&quot;&gt;- Traces&lt;/font&gt;&lt;/div&gt;&lt;div style=&quot;font-size: 16px;&quot;&gt;&lt;font style=&quot;font-size: 16px;&quot;&gt;- Power&lt;/font&gt;&lt;/div&gt;" style="text;html=1;strokeColor=none;fillColor=none;spacing=5;spacingTop=-20;whiteSpace=wrap;overflow=hidden;rounded=0;" vertex="1" parent="1">
          <mxGeometry x="110" y="370" width="190" height="200" as="geometry" />
        </mxCell>
        <mxCell id="OYBRQHgp1X63FzrZNqn0-6" value="&lt;div style=&quot;&quot;&gt;&lt;span style=&quot;font-size: 25px; background-color: initial;&quot;&gt;Component&lt;/span&gt;&lt;/div&gt;" style="rounded=1;whiteSpace=wrap;html=1;fillColor=#dae8fc;strokeColor=#6c8ebf;align=center;arcSize=5;" vertex="1" parent="1">
          <mxGeometry x="640" y="230" width="160" height="410" as="geometry" />
        </mxCell>
        <mxCell id="OYBRQHgp1X63FzrZNqn0-9" value="" style="endArrow=classic;html=1;rounded=0;exitX=1;exitY=0.5;exitDx=0;exitDy=0;entryX=0;entryY=0.5;entryDx=0;entryDy=0;shape=flexArrow;fillColor=#e1d5e7;strokeColor=#9673a6;" edge="1" parent="1" source="OYBRQHgp1X63FzrZNqn0-1" target="OYBRQHgp1X63FzrZNqn0-6">
          <mxGeometry width="50" height="50" relative="1" as="geometry">
            <mxPoint x="390" y="490" as="sourcePoint" />
            <mxPoint x="440" y="440" as="targetPoint" />
          </mxGeometry>
        </mxCell>
        <mxCell id="OYBRQHgp1X63FzrZNqn0-11" value="&lt;div style=&quot;&quot;&gt;&lt;span style=&quot;background-color: initial;&quot;&gt;&lt;font style=&quot;font-size: 18px;&quot;&gt;Block&lt;/font&gt;&lt;/span&gt;&lt;/div&gt;" style="rounded=1;whiteSpace=wrap;html=1;fillColor=#99CCFF;strokeColor=#10739e;align=center;arcSize=5;" vertex="1" parent="1">
          <mxGeometry x="300" y="410" width="80" height="70" as="geometry" />
        </mxCell>
        <mxCell id="OYBRQHgp1X63FzrZNqn0-15" value="&lt;div style=&quot;&quot;&gt;&lt;span style=&quot;background-color: initial;&quot;&gt;&lt;font style=&quot;font-size: 18px;&quot;&gt;Block&lt;/font&gt;&lt;/span&gt;&lt;/div&gt;" style="rounded=1;whiteSpace=wrap;html=1;fillColor=#99CCFF;strokeColor=#10739e;align=center;arcSize=5;" vertex="1" parent="1">
          <mxGeometry x="420" y="410" width="80" height="70" as="geometry" />
        </mxCell>
        <mxCell id="OYBRQHgp1X63FzrZNqn0-17" value="&lt;div style=&quot;&quot;&gt;&lt;span style=&quot;background-color: initial;&quot;&gt;&lt;font style=&quot;font-size: 18px;&quot;&gt;Block&lt;/font&gt;&lt;/span&gt;&lt;/div&gt;" style="rounded=1;whiteSpace=wrap;html=1;fillColor=#99CCFF;strokeColor=#10739e;align=center;arcSize=5;" vertex="1" parent="1">
          <mxGeometry x="300" y="510" width="80" height="70" as="geometry" />
        </mxCell>
        <mxCell id="OYBRQHgp1X63FzrZNqn0-18" value="&lt;div style=&quot;&quot;&gt;&lt;span style=&quot;background-color: initial;&quot;&gt;&lt;font style=&quot;font-size: 18px;&quot;&gt;Block&lt;/font&gt;&lt;/span&gt;&lt;/div&gt;" style="rounded=1;whiteSpace=wrap;html=1;fillColor=#99CCFF;strokeColor=#10739e;align=center;arcSize=5;" vertex="1" parent="1">
          <mxGeometry x="420" y="510" width="80" height="70" as="geometry" />
        </mxCell>
      </root>
    </mxGraphModel>
  </diagram>
</mxfile>
